<?xml version="1.0" encoding="utf-8"?>
<!-- Generator: Adobe Illustrator 24.1.1, SVG Export Plug-In . SVG Version: 6.00 Build 0)  -->
<svg version="1.1" id="Livello_1" xmlns="http://www.w3.org/2000/svg" xmlns:xlink="http://www.w3.org/1999/xlink" x="0px" y="0px"
	 viewBox="0 0 796 365" style="enable-background:new 0 0 796 365;" xml:space="preserve">
<style type="text/css">
	.st0{fill:#51AEE5;}
	.st1{fill:#FFFFFF;}
</style>
<g>
	<g>
		<path class="st0" d="M536.97,152.45c0,1.74-0.39,2.89-0.99,3.58c-0.6,0.69-1.44,1.02-2.63,1.03c-1.97,0-3.55-1.02-5.32-2.96
			l-0.48-0.52l-5.23,5.83l0.36,0.43c2.25,2.69,5.72,4.99,10.85,4.98c3.56,0,6.6-1.04,8.69-3.13c2.04-2.04,3.18-5.04,3.17-8.92V131.4
			h-8.43V152.45z"/>
		<path class="st0" d="M592.21,134.62c-2.23-2.06-5.43-3.22-9.33-3.22h-13.59v32.96h8.24v-9.5h4.65c3.67,0,7.03-0.97,9.48-2.96
			c2.45-1.97,3.99-4.98,3.97-8.81v-0.09C595.64,139.6,594.44,136.68,592.21,134.62z M587.3,143.22c-0.04,2.36-1.65,4.1-4.87,4.16
			h-4.89v-8.41h4.74c1.65,0,2.9,0.39,3.73,1.09c0.82,0.67,1.29,1.65,1.29,3.07V143.22z"/>
		<polygon class="st0" points="625.78,151.5 640.72,151.5 640.72,144.03 625.78,144.03 625.78,138.88 642.75,138.88 642.75,131.4 
			617.58,131.4 617.58,132.04 617.58,164.36 642.98,164.36 642.98,156.88 625.78,156.88 		"/>
		<path class="st0" d="M680.99,144.84v6.66v0.64H688l0,3.49c-1.6,1.07-3.61,1.66-5.92,1.66c-5.26-0.02-8.93-3.91-8.95-9.41v-0.09
			c0-5.07,3.79-9.22,8.46-9.23c3.52,0.02,5.46,1.08,7.87,3.07l0.49,0.41l5.2-6.28l-0.48-0.41c-3.37-2.88-7.05-4.51-12.86-4.5
			c-4.96,0-9.29,1.91-12.36,5c-3.07,3.09-4.89,7.35-4.89,12.02v0.09c0,4.84,1.76,9.09,4.82,12.11c3.05,3.03,7.39,4.82,12.48,4.82
			c5.96,0,10.6-2.34,13.94-5.17l0.23-0.19v-14.69H680.99z"/>
	</g>
	<g>
		<g>
			<path class="st0" d="M167.23,206.46c-2.55,0.62-4.65,1.14-5.88,1.54c-1.97,0.62-3.73,1.11-5.3,1.5
				c-1.63,0.36-3.07,0.62-4.74,0.62c-0.79,0-1.71-0.06-2.75-0.36c-1.05-0.26-2.32-0.84-3.43-1.89c-0.75-0.69-1.35-1.57-1.74-2.49
				c-0.58-1.24-0.71-2.38-0.71-3.34c0-0.39,0.04-0.75,0.04-1.11l0.06-0.07v-0.36c0-0.26,0.04-0.71,0.04-1.14v-3.56
				c0-5.51-0.13-13.15-0.13-16.17c0.04-0.36-0.09-1.46-0.36-2.72c-0.21-1.27-0.56-2.77-0.99-4.25c0-0.06-0.06-0.09-0.06-0.13
				c-14.17,5.51-23.16,16.4-25.65,29.19l-0.09,0.32c-4.03,20.78,14.13,27.15,35.3,31.63c10.14,2.14,12.95,3.67,12.42,6.48
				l-0.09,0.26c-0.52,2.68-3.34,4.25-9.26,4.25c-11.52,0-23.1-3.37-32.19-11.52l-21.72,20.91c10.4,11.02,27.28,16.62,47.29,16.62
				c26.44,0,45.93-12.67,49.96-33.34l0.09-0.3C200.86,218.83,188.1,211.16,167.23,206.46z"/>
			<path class="st0" d="M295.62,198.66c-1.86,0.43-3.82,0.04-5.36-1.11c-0.26-0.17-0.52-0.39-0.75-0.66l-3.34,16.94l-11.88-19.49
				c-0.36,1.54-0.71,3.11-1.05,4.61c-1.37,5.92-2.64,11.02-2.68,11.06c-0.71,2.98-3.43,5.04-6.5,4.95l-18.49-0.34
				c-2.12-0.06-4.05-1.05-5.27-2.77c-1.18-1.71-1.54-3.9-0.88-5.86c0,0,1.18-3.52,2.68-8.21c1.48-4.65,3.34-10.53,4.68-15.18
				c0.79-2.64,1.37-4.91,1.63-6.05l-0.26-0.45c-0.39-0.6-0.97-1.18-1.41-1.52c-1.54,0.13-3.86,0.3-6.01,0.47
				c-2.72,0.22-5.04,0.39-5.04,0.39c-1.8,0.19-3.56-0.43-4.91-1.61c-0.92-0.84-1.63-1.93-1.99-3.17l-19.21,98.17h32.64l8.9-45.44
				l27.68,45.44h29.25l15.01-76.54L295.62,198.66z"/>
			<path class="st0" d="M345.88,170.37l-19.3,98.47h32.94l19.26-98.47H345.88z"/>
			<path class="st0" d="M441.63,170.37h-44.33l-19.26,98.47h32.9l5.25-26.72h10.72c26.57,0,47.18-12.67,51.83-36.45l0.06-0.26
				C483.39,182.02,467.77,170.37,441.63,170.37z M445.88,207.51l-0.04,0.28c-1.41,7.05-7.76,10.83-16.19,10.83h-8.86l4.31-21.94
				h8.98C442.81,196.68,447.29,200.33,445.88,207.51z"/>
			<path class="st0" d="M490.18,241.82l-5.3,27.02h84.7l5.27-27.02H490.18z M496.92,207.38l-4.67,23.78h80.48l4.65-23.78H496.92z
				 M504.18,170.37l-5.3,27.02h84l5.25-27.02H504.18z"/>
			<path class="st0" d="M688.8,181.63c-5.53-6.88-15.8-11.26-33.26-11.26h-48.12l-19.3,98.47h32.94l5.53-28.13h7.03l13.06,28.13
				h37.55l-16.36-33.47c13.08-5.79,22.5-15.74,25.32-30.09l0.04-0.3C695.19,194.84,693.52,187.51,688.8,181.63z M659.98,207.38
				l-0.06,0.28c-1.18,6.05-6.65,9.56-14.56,9.56h-14.2l3.77-19.26h14.39C656.91,197.95,661.2,201.02,659.98,207.38z"/>
		</g>
	</g>
	<path class="st1" d="M587.43,117.58c-0.37-2.36-2.64-3.97-5.02-3.71l-75.7,8.53l-0.26-2.45l7.27-1.01l-0.45-2.9
		c-0.34-2.08-2.23-3.52-4.31-3.28l-35.79,4.01l-0.37-4.93l-158.58,16.08l16.26-7.1l-0.19-1.89l6.46-0.66l34.03,1.93l30.41-2.77
		c2.34-0.21,4.05-2.3,3.79-4.63l-1.63-14.73c-0.26-2.3-2.32-3.95-4.63-3.71l-29.31,3.24l-33.3,8.68l-28.95,2.89v-5.6
		c0-1.5-1.27-2.68-2.77-2.55l-11.58,0.99c-1.42,0.13-2.47,1.39-2.32,2.81l0.62,5.96l-47.67,4.78c-1.12,0.11-1.99,1.05-1.99,2.19
		l0.62,7.74c0,1.31,1.12,2.32,2.44,2.21l38.3-4.03c0.17,1.57,0.32,4.01-0.15,4.38c-0.66,0.51-2.7,0.75-2.94,3.37l-41.15,4.18
		l-6.22,7.48v6.82l-25.33,2.42v-1.89c0-0.99-0.86-1.76-1.85-1.65l-46.96,5.06c-1.11,0.11-2.06,0.9-2.29,1.97
		c-0.15,0.73,0.02,1.65,0.96,2.66c0,0-5.38-0.66-8.94-0.66c-3.56,0-3.86,2.1-2.72,5.3c1.16,3.2,4.05,12.18,4.05,16.53
		c0,4.35,0.3,19.49,0,22.09c-0.3,2.59,2.77,2.29,10.14,0c7.36-2.3,32.32-7.06,35.71-7.91c3.24-0.81,3.5-3.69,3.5-8.69
		c0-5,15.93-22.02,36.26-21.66l0.24,5.45c0,0,9.48-0.81,12.37-0.96c2.9-0.17,7.61,5.1,7.61,8.36c0,3.26-9.41,31.74-9.41,31.74
		l18.51,0.36c0,0,5.08-20.37,5.87-26.55c0,0,22.86-2.85,22.86-3.19l1.2,13.57l35.73-8.26l-2.17-23.35c0,0,2.04-0.84,3.26-2.06
		c1.2-1.2,0-5.1,0-5.1l105.16-11.67l68.28-6.76c2.19-0.22,3.79-2.23,3.5-4.42l-0.02-0.19l75.63-7.7
		C586.02,122.46,587.82,120.11,587.43,117.58z M369.39,100.53l30.3-3.64l0.6,4.59l-29.33,3.26l-34.82,4.1L369.39,100.53z
		 M157.5,200.41l-4.57-40.29h4.67l4.67,38.84L157.5,200.41z M321.33,119.81l0.06,1.03l-17.33,8.09l-8.66,0.88
		c-1.52-1.12-3.88-3.43-4.05-7.01L321.33,119.81z M291.59,173.78c0,2.32-1.71,4.29-4.01,4.61l-11.11,1.56
		c-2.81,0.39-5.3-1.78-5.3-4.63v-0.71c0-2.32,1.7-4.31,4.01-4.63l1.22-0.17c-0.77,6.76,4.12,8.19,4.12,8.19
		c-1.26-1.8-0.6-6.13,0.58-8.84l5.19-0.71c2.81-0.39,5.3,1.78,5.3,4.61V173.78z M327.78,181.65l-32.08,7.85l-0.37-6.52l31.67-8.79
		L327.78,181.65z M295.32,169.25v-12.78c0-1.48,1.12-2.74,2.62-2.9l23.46-2.45c1.46-0.15,2.81,0.81,3.15,2.23l0.79,3.2
		c0.32,1.33-0.32,2.7-1.56,3.32l-24.25,12.01C297.59,172.82,295.32,171.4,295.32,169.25z M245.68,143.85v-3.63l223.96-24.57v2.98
		L245.68,143.85z M503.03,132.87l-171.32,18.23l-2.21-5.53l174.38-18.19L503.03,132.87z M582.5,120.99l-1.95,0.19
		c-0.86,0.09-1.61-0.54-1.69-1.39l-0.23-2.32c-0.08-0.84,0.54-1.61,1.41-1.69l1.95-0.19c0.84-0.08,1.61,0.54,1.69,1.41l0.23,2.3
		C583.98,120.17,583.36,120.92,582.5,120.99z"/>
</g>
</svg>
